<svg width="66" height="66" viewBox="0 0 66 66" fill="none" xmlns="http://www.w3.org/2000/svg">
<path d="M54 33C54 21.402 44.598 12 33 12C21.402 12 12 21.402 12 33C12 44.598 21.402 54 33 54V66C14.7746 66 0 51.2254 0 33C0 14.7746 14.7746 0 33 0C51.2254 0 66 14.7746 66 33C66 51.2254 51.2254 66 33 66V54C44.598 54 54 44.598 54 33Z" fill="url(#paint0_radial_8_43)"/>
<g filter="url(#filter0_di_8_43)">
<circle cx="33" cy="33" r="21" fill="url(#paint1_radial_8_43)"/>
</g>
<defs>
<filter id="filter0_di_8_43" x="0" y="0" width="66" height="66" filterUnits="userSpaceOnUse" color-interpolation-filters="sRGB">
<feFlood flood-opacity="0" result="BackgroundImageFix"/>
<feColorMatrix in="SourceAlpha" type="matrix" values="0 0 0 0 0 0 0 0 0 0 0 0 0 0 0 0 0 0 127 0" result="hardAlpha"/>
<feMorphology radius="4" operator="dilate" in="SourceAlpha" result="effect1_dropShadow_8_43"/>
<feOffset/>
<feGaussianBlur stdDeviation="4"/>
<feComposite in2="hardAlpha" operator="out"/>
<feColorMatrix type="matrix" values="0 0 0 0 1 0 0 0 0 0.545098 0 0 0 0 0 0 0 0 0.8 0"/>
<feBlend mode="normal" in2="BackgroundImageFix" result="effect1_dropShadow_8_43"/>
<feBlend mode="normal" in="SourceGraphic" in2="effect1_dropShadow_8_43" result="shape"/>
<feColorMatrix in="SourceAlpha" type="matrix" values="0 0 0 0 0 0 0 0 0 0 0 0 0 0 0 0 0 0 127 0" result="hardAlpha"/>
<feMorphology radius="1" operator="erode" in="SourceAlpha" result="effect2_innerShadow_8_43"/>
<feOffset/>
<feGaussianBlur stdDeviation="1"/>
<feComposite in2="hardAlpha" operator="arithmetic" k2="-1" k3="1"/>
<feColorMatrix type="matrix" values="0 0 0 0 0.85098 0 0 0 0 0.52549 0 0 0 0 0.145098 0 0 0 0.6 0"/>
<feBlend mode="normal" in2="shape" result="effect2_innerShadow_8_43"/>
</filter>
<radialGradient id="paint0_radial_8_43" cx="0" cy="0" r="1" gradientUnits="userSpaceOnUse" gradientTransform="translate(33 33) rotate(90) scale(33)">
<stop stop-color="#FF9200"/>
<stop offset="0.605769" stop-color="#FFC16E"/>
<stop offset="0.831731" stop-color="#FFF0DF"/>
<stop offset="1" stop-color="#E09A48"/>
</radialGradient>
<radialGradient id="paint1_radial_8_43" cx="0" cy="0" r="1" gradientUnits="userSpaceOnUse" gradientTransform="translate(27.5 26.5) rotate(50.4403) scale(29.8329)">
<stop stop-color="#FFF6EB"/>
<stop offset="0.390433" stop-color="#FFCA81"/>
<stop offset="0.920989" stop-color="#FFA827"/>
<stop offset="1" stop-color="#D98625"/>
</radialGradient>
</defs>
</svg>
