<svg width="230" height="100" viewBox="0 0 230 100" fill="none" xmlns="http://www.w3.org/2000/svg">
<path fill-rule="evenodd" clip-rule="evenodd" d="M33.0593 32.2193C31.8686 30.2667 30.2395 28.7358 28.1647 27.6265C26.0923 26.5172 23.7132 25.959 21.0418 25.959H4.58008V65.4303H13.7968V51.8963H21.0395C23.7156 51.8963 26.0899 51.3333 28.1623 50.2048C30.2347 49.0788 31.8662 47.5287 33.057 45.5545C34.2429 43.5779 34.8347 41.3522 34.8347 38.8725C34.8347 36.3928 34.2405 34.1719 33.057 32.2193H33.0593ZM25.0549 41.0695C24.6763 41.7116 24.1397 42.2075 23.4449 42.5645C22.7501 42.9191 21.9451 43.0988 21.0418 43.0988H13.804V34.6966H21.0418C21.9475 34.6966 22.7501 34.8763 23.4449 35.2309C24.1421 35.5878 24.6787 36.0886 25.0549 36.7259C25.4334 37.3679 25.6203 38.0795 25.6203 38.8701C25.6203 39.6608 25.4286 40.4298 25.0549 41.0695Z" fill="#121117"/>
<path fill-rule="evenodd" clip-rule="evenodd" d="M59.9498 37.2387C61.059 38.5996 61.8305 40.4372 62.2665 42.742L53.7182 45.7679C53.5529 44.9629 53.2558 44.3232 52.8222 43.8656C52.1633 43.1684 51.399 42.821 50.4191 42.821C49.4392 42.821 48.5624 43.154 47.7909 43.8081C47.0147 44.4646 46.4229 45.3965 46.0084 46.5992C45.5939 47.802 45.3879 49.1748 45.3879 50.7153V65.4329H36.6191V34.9818H44.4248V40.2263C45.0644 38.9853 45.8311 37.9335 46.7176 37.0686C47.604 36.2037 48.6295 35.5377 49.7986 35.0681C50.9654 34.5985 52.2112 34.3613 53.5337 34.3613C56.2482 34.3613 58.3901 35.3197 59.9546 37.2363H59.9474L59.9498 37.2387Z" fill="#121117"/>
<path fill-rule="evenodd" clip-rule="evenodd" d="M125.14 42.2024C123.839 39.797 122.066 37.8899 119.821 36.4788C117.576 35.07 115.097 34.3633 112.385 34.3633C109.673 34.3633 107.313 34.9574 105.315 36.1386C104.157 36.8286 103.161 37.6863 102.317 38.7069V34.9814H94.5117V76.0628H103.28V62.7635C103.348 62.8282 103.412 62.8953 103.477 62.9576C104.589 63.9734 105.899 64.7424 107.408 65.2719C108.915 65.7942 110.573 66.0625 112.387 66.0625C115.137 66.0625 117.634 65.3558 119.881 63.9494C122.126 62.5407 123.887 60.624 125.171 58.197C126.451 55.7724 127.093 53.1107 127.093 50.2165C127.093 47.3223 126.443 44.6174 125.142 42.2096H125.14V42.2024ZM117.222 54.0139C116.563 55.1591 115.667 56.0695 114.536 56.7476C113.408 57.4208 112.162 57.7634 110.801 57.7634C109.368 57.7634 108.089 57.4352 106.958 56.7763C105.827 56.1175 104.931 55.219 104.272 54.0714C103.613 52.9238 103.283 51.6181 103.283 50.1518C103.283 48.7622 103.604 47.4948 104.244 46.3448C104.888 45.1972 105.772 44.294 106.901 43.6399C108.031 42.9835 109.316 42.6529 110.743 42.6529C112.171 42.6529 113.4 42.9859 114.536 43.6399C115.665 44.2964 116.563 45.2092 117.219 46.3736C117.878 47.5404 118.209 48.8173 118.209 50.2069C118.209 51.5965 117.876 52.8687 117.219 54.0139H117.222Z" fill="#121117"/>
<path fill-rule="evenodd" clip-rule="evenodd" d="M138.1 61.8796C138.232 63.3459 138.467 64.5318 138.809 65.4326H129.135V23.5918H137.904V56.6327C137.904 58.6644 137.968 60.411 138.1 61.8772V61.8796Z" fill="#121117"/>
<path fill-rule="evenodd" clip-rule="evenodd" d="M162.681 34.9785H172.07L158.608 67.1785C157.441 69.996 155.901 72.1882 153.999 73.7479C152.094 75.3076 149.559 76.0886 146.392 76.0886C145.112 76.0886 143.867 75.9497 142.657 75.667C141.452 75.3842 140.412 75.0392 139.547 74.6224L142.204 66.2777C142.997 66.6898 143.759 67.0084 144.497 67.236C145.23 67.4612 145.956 67.5738 146.672 67.5738C147.69 67.5738 148.512 67.2911 149.133 66.7257C149.753 66.1603 150.314 65.3529 150.8 64.3011L151.382 63.0122L139.659 34.9833H149.049L155.839 52.9017L162.683 34.9833L162.681 34.9785Z" fill="#121117"/>
<path fill-rule="evenodd" clip-rule="evenodd" d="M92.1547 48.8585C92.1547 46.1512 91.4958 43.6883 90.1733 41.4698C88.8508 39.2488 87.0444 37.5118 84.7444 36.254C82.4468 34.9914 79.8808 34.3613 77.0537 34.3613C74.2267 34.3613 71.5098 35.0513 69.1355 36.4217C66.7589 37.7922 64.8901 39.6945 63.5365 42.1166C62.178 44.5412 61.5 47.2581 61.5 50.2649C61.5 53.2716 62.1756 56.0796 63.5365 58.4682C64.8949 60.8569 66.8092 62.7208 69.2745 64.0505C71.7446 65.385 74.5788 66.0558 77.7869 66.0558C81.7472 66.0558 84.9696 65.1166 87.4565 63.2335C89.3276 61.8224 90.7124 60.0039 91.5988 57.7854L83.1224 54.8385C82.902 55.919 82.315 56.7815 81.3471 57.426C80.3289 58.0992 79.0255 58.4418 77.4443 58.4418C75.863 58.4418 74.5477 58.104 73.4001 57.426C72.2501 56.7528 71.3732 55.7633 70.7671 54.4648C70.47 53.8227 70.2472 53.1183 70.0915 52.3516H91.8049C92.0301 51.1489 92.1475 49.9846 92.1475 48.8585H92.1547ZM70.4532 46.0338C70.5347 45.8086 70.6185 45.593 70.7144 45.387C71.2798 44.1651 72.0872 43.2283 73.1461 42.5671C74.2003 41.9106 75.4845 41.58 76.9891 41.58C78.0456 41.58 79.0159 41.7764 79.9024 42.1741C80.7912 42.5695 81.4956 43.0965 82.0227 43.753C82.5498 44.4095 82.8541 45.1737 82.9283 46.0386H70.4484H70.4508L70.4532 46.0338Z" fill="#121117"/>
<path fill-rule="evenodd" clip-rule="evenodd" d="M219.159 31.2224L197.074 17.7626C189.961 13.4309 180.83 18.5341 180.83 26.8428V64.6994C180.83 72.2558 185.282 76.1539 191 76.1539C196.365 76.1539 200.759 72.0115 201.142 66.7646C206.386 66.2159 210.711 61.8004 210.474 55.818L220.098 49.953C223.502 47.8782 225.206 44.3779 225.206 40.8728C225.206 37.3677 224.01 33.9033 219.156 31.2152V31.2224H219.159ZM191.003 70.1283C188.727 70.1283 186.884 68.2883 186.884 66.0219C186.884 63.7554 188.727 61.913 191.003 61.913C193.279 61.913 195.126 63.753 195.126 66.0219C195.126 68.2907 193.279 70.1283 191.003 70.1283ZM204.427 56.429C204.427 57.9791 203.425 60.7942 199.716 60.7942C199.295 60.1018 198.794 59.4573 198.229 58.8871C197.656 58.3169 197.019 57.8114 196.326 57.3825C194.779 56.4314 192.955 55.8827 191 55.8827C189.656 55.8827 188.372 56.1438 187.198 56.6134C187.095 56.6542 186.978 56.7045 186.877 56.7476V47.6674C186.877 45.2572 188.837 43.3022 191.254 43.3022H200.042C202.46 43.3022 204.419 45.2548 204.419 47.6674V56.429H204.422H204.427ZM216.945 44.8164L210.476 48.7575V47.665C210.476 41.9246 205.807 37.2695 200.049 37.2695H191.262C189.699 37.2695 188.216 37.6121 186.884 38.2302V26.8452C186.884 23.2443 190.837 21.0305 193.923 22.9089L216.95 36.9436C219.901 38.7429 219.901 43.0171 216.95 44.814H216.947L216.945 44.8164Z" fill="#121117"/>
</svg>
